<?xml version="1.0" encoding="UTF-8"?>
<svg xmlns="http://www.w3.org/2000/svg" style="background:#0A0B0D" viewBox="0 0 1000 420" role="img" aria-label="Nuage de points des produits par date et par prix, de deux mille vingt-deux à deux mille vingt-six. La quasi-totalité des points récents se pose sur une ligne horizontale à quarante-neuf dollars quatre-vingt-dix-neuf." class="schema">
  <style>
    text { font-family: Archivo, Helvetica, Arial, sans-serif; }
    .grille { stroke: #22262D; } .grille-v { stroke: #22262D; stroke-dasharray: 2 4; }
    .ligne-cle { stroke: #93A9F4; stroke-width: 1.4; stroke-dasharray: 5 4; }
    .zone { fill: none; stroke: #93A9F4; stroke-width: 1; stroke-dasharray: 3 3; }
    .rappel { stroke: #93A9F4; stroke-width: 1; }
    .pt { fill: #545B69; } .pt-cle { fill: #93A9F4; }
    .t-axe { fill: #7C8493; font-size: 13px; font-family: monospace; }
    .t-cle { fill: #93A9F4; font-size: 15px; font-weight: 600; }
    .t-annot { fill: #B9BFCA; font-size: 13px; }
    .t-annot-s { fill: #7C8493; font-size: 12px; }
  </style>

<line class="grille" x1="70" y1="366.0" x2="790" y2="366.0"/>
<text class="t-axe" x="58" y="371.0" text-anchor="end">0 $</text>
<line class="grille" x1="70" y1="290.5" x2="790" y2="290.5"/>
<text class="t-axe" x="58" y="295.5" text-anchor="end">25 $</text>
<line class="grille" x1="70" y1="215.1" x2="790" y2="215.1"/>
<text class="t-axe" x="58" y="220.1" text-anchor="end">50 $</text>
<line class="grille" x1="70" y1="139.6" x2="790" y2="139.6"/>
<text class="t-axe" x="58" y="144.6" text-anchor="end">75 $</text>
<line class="grille" x1="70" y1="64.2" x2="790" y2="64.2"/>
<text class="t-axe" x="58" y="69.2" text-anchor="end">100 $</text>
<line class="ligne-cle" x1="70" y1="215.1" x2="796" y2="215.1"/>
<text class="t-cle" x="806" y="209.1">49,99 $</text>
<text class="t-annot-s" x="806" y="229.1">jamais augmenté</text>
<text class="t-annot-s" x="806" y="245.1">en quatre ans</text>
<line class="grille-v" x1="70.0" y1="34" x2="70.0" y2="366"/>
<text class="t-axe" x="70.0" y="388" text-anchor="middle">2022</text>
<line class="grille-v" x1="210.9" y1="34" x2="210.9" y2="366"/>
<text class="t-axe" x="210.9" y="388" text-anchor="middle">2023</text>
<line class="grille-v" x1="409.1" y1="34" x2="409.1" y2="366"/>
<text class="t-axe" x="409.1" y="388" text-anchor="middle">2024</text>
<line class="grille-v" x1="595.0" y1="34" x2="595.0" y2="366"/>
<text class="t-axe" x="595.0" y="388" text-anchor="middle">2025</text>
<line class="grille-v" x1="790.0" y1="34" x2="790.0" y2="366"/>
<text class="t-axe" x="790.0" y="388" text-anchor="middle">2026</text>
<rect class="zone" x="56.7" y="263.5" width="32" height="84.4" rx="3"/>
<line class="rappel" x1="90.7" y1="305.7" x2="164.7" y2="305.7"/>
<text class="t-annot" x="172.7" y="302.7">9 produits sous 30 $,</text>
<text class="t-annot" x="172.7" y="320.7">tous le même jour, aucun depuis</text>
<circle class="pt" cx="70.0" cy="245.3" r="4.5"><title>High Frequency Full Body Program — 39.99 $ — 2022-02-23</title></circle>
<circle class="pt" cx="70.0" cy="245.3" r="4.5"><title>Upper Lower Size and Strength Program — 39.99 $ — 2022-02-23</title></circle>
<circle class="pt" cx="70.5" cy="245.3" r="4.5"><title>Fundamentals Hypertrophy Program — 39.99 $ — 2022-02-24</title></circle>
<circle class="pt" cx="70.5" cy="245.3" r="4.5"><title>Push/Pull/Legs Hypertrophy Program — 39.99 $ — 2022-02-24</title></circle>
<circle class="pt-cle" cx="70.5" cy="215.1" r="6"><title>Powerbuilding Phase 2.0 — 49.99 $ — 2022-02-24</title></circle>
<circle class="pt-cle" cx="70.5" cy="215.1" r="6"><title>The Powerbuilding System — 49.99 $ — 2022-02-24</title></circle>
<circle class="pt-cle" cx="70.5" cy="215.1" r="6"><title>The Ultimate Guide To Body Recomposition — 49.99 $ — 2022-02-24</title></circle>
<circle class="pt" cx="72.7" cy="335.8" r="4.5"><title>Forearm Hypertrophy Guide — 9.99 $ — 2022-03-01</title></circle>
<circle class="pt" cx="72.7" cy="335.8" r="4.5"><title>Neck And Trap Guide — 9.99 $ — 2022-03-01</title></circle>
<circle class="pt" cx="72.7" cy="305.7" r="4.5"><title>Arm Hypertrophy Program — 19.99 $ — 2022-03-01</title></circle>
<circle class="pt" cx="72.7" cy="305.7" r="4.5"><title>Back Hypertrophy Program — 19.99 $ — 2022-03-01</title></circle>
<circle class="pt" cx="72.7" cy="305.7" r="4.5"><title>Chest Hypertrophy Program — 19.99 $ — 2022-03-01</title></circle>
<circle class="pt" cx="72.7" cy="305.7" r="4.5"><title>Men&#x27;s Shoulder Hypertrophy Program — 19.99 $ — 2022-03-01</title></circle>
<circle class="pt" cx="72.7" cy="305.7" r="4.5"><title>Squat Specialization Program — 19.99 $ — 2022-03-01</title></circle>
<circle class="pt" cx="72.7" cy="305.7" r="4.5"><title>Women&#x27;s Shoulder Hypertrophy Program — 19.99 $ — 2022-03-01</title></circle>
<circle class="pt" cx="72.7" cy="275.5" r="4.5"><title>Glute Hypertrophy Program — 29.99 $ — 2022-03-01</title></circle>
<circle class="pt-cle" cx="72.7" cy="215.1" r="6"><title>Powerbuilding Phase 3.0 — 49.99 $ — 2022-03-01</title></circle>
<circle class="pt" cx="179.0" cy="245.3" r="4.5"><title>The Essentials Program — 39.99 $ — 2022-10-23</title></circle>
<circle class="pt-cle" cx="210.9" cy="215.1" r="6"><title>The Ultimate Push Pull Legs System — 49.99 $ — 2023-01-02</title></circle>
<circle class="pt" cx="219.9" cy="184.9" r="4.5"><title>The Essentials Program Bundle — 60.00 $ — 2023-01-22</title></circle>
<circle class="pt" cx="219.9" cy="64.2" r="4.5"><title>Powerbuilding Bundle — 99.99 $ — 2023-01-22</title></circle>
<circle class="pt-cle" cx="349.2" cy="215.1" r="6"><title>The Pure Bodybuilding Program - Phase 1 — 49.99 $ — 2023-11-05</title></circle>
<circle class="pt" cx="349.6" cy="187.9" r="4.5"><title>The Pure Bodybuilding Program Bundle — 59.00 $ — 2023-11-06</title></circle>
<circle class="pt-cle" cx="409.1" cy="215.1" r="6"><title>The Pure Bodybuilding Program - Phase 2 — 49.99 $ — 2024-03-17</title></circle>
<circle class="pt-cle" cx="595.0" cy="215.1" r="6"><title>The Bodybuilding Transformation System — 49.99 $ — 2025-05-04</title></circle>
<circle class="pt-cle" cx="667.5" cy="215.1" r="6"><title>MIN-MAX PROGRAM - PHASE 1 — 49.99 $ — 2025-10-12</title></circle>
<circle class="pt-cle" cx="790.0" cy="215.1" r="6"><title>MIN-MAX PROGRAM - PHASE 2 — 49.99 $ — 2026-07-11</title></circle>
</svg>
